# xmcd
#
# Track frame offsets:
#	150
#	39693
#	61003
#	79139
#	116885
#	144341
#	223314
#
# Disc length: 3319 seconds
#
# Revision: 1
# Processed by: cddbd v1.5.1PL2 Copyright (c) Steve Scherf et al.
# Submitted via: EasyCDDAExtractor 9.0.0.1
#
DISCID=650cf507
DTITLE=Carl Palmer - Granada Theater Dallas 30-06-06 Disc 1
DYEAR=2006
DGENRE=Hard Rock
TTITLE0=The Barbarian
TTITLE1=Hoedown
TTITLE2=Enemy Guard
TTITLE3=Trilogy
TTITLE4=LA Nights
TTITLE5=Solo Medley
TTITLE6=Tank
EXTD=
EXTT0=
EXTT1=
EXTT2=
EXTT3=
EXTT4=
EXTT5=
EXTT6=
PLAYORDER=
